<svg width="150" height="150" viewBox="0 0 150 150" fill="none" xmlns="http://www.w3.org/2000/svg">
<rect width="150" height="150" rx="16" fill="#A7C957"/>
<circle cx="47.4679" cy="69.4679" r="31.4679" fill="#151B27"/>
<rect x="88.3234" y="98.0582" width="20.025" height="39.1394" rx="6" transform="rotate(135 88.3234 98.0582)" fill="#151B27"/>
<circle cx="46.9911" cy="69.9446" r="16.6875" fill="#A7C957"/>
<circle cx="105.79" cy="75.9883" r="27.6278" fill="#151B27"/>
<rect x="82.9293" y="70.1102" width="20.025" height="39.1394" rx="6" fill="#151B27"/>
<circle cx="105.215" cy="75.4127" r="14.3895" fill="#A7C957"/>
<rect x="65" y="71" width="14" height="18" fill="#151B27"/>
<rect x="72" y="83" width="15" height="11" fill="#151B27"/>
<path d="M79.9663 83.1175C80.4366 82.7427 81.129 82.8648 81.4428 83.3779L85.2442 89.5949C85.6935 90.3297 85.0656 91.251 84.2174 91.1014L74.7174 89.4263C73.8692 89.2768 73.5943 88.1963 74.2678 87.6595L79.9663 83.1175Z" fill="#A7C957"/>
</svg>
